HIERARCHY
ROOT Hips
{
	OFFSET -14.64140 90.27770 -84.91600
	CHANNELS 6 Xposition Yposition Zposition Zrotation Xrotation Yrotation
	JOINT Spine
	{
		OFFSET 0.00000 13.20850 -1.60436
		CHANNELS 3 Zrotation Xrotation Yrotation
		JOINT Spine1
		{
			OFFSET 0.00000 8.61716 0.00000
			CHANNELS 3 Zrotation Xrotation Yrotation
			JOINT Spine2
			{
				OFFSET 0.00000 8.61717 0.00000
				CHANNELS 3 Zrotation Xrotation Yrotation
				JOINT Spine3
				{
					OFFSET 0.00000 8.61717 0.00000
					CHANNELS 3 Zrotation Xrotation Yrotation
					JOINT Neck
					{
						OFFSET 0.00000 11.07920 1.10792
						CHANNELS 3 Zrotation Xrotation Yrotation
						JOINT Neck1
						{
							OFFSET 0.00000 7.08032 0.00000
							CHANNELS 3 Zrotation Xrotation Yrotation
							JOINT Head
							{
								OFFSET 0.00000 7.08031 0.00000
								CHANNELS 3 Zrotation Xrotation Yrotation
								End site
								{
									OFFSET 0.00000 0.00000 0.00000
								}
							}
						}
					}
					JOINT RightShoulder
					{
						OFFSET -0.01000 7.91373 5.19711
						CHANNELS 3 Zrotation Xrotation Yrotation
						JOINT RightArm
						{
							OFFSET -18.41580 0.00000 0.00000
							CHANNELS 3 Zrotation Xrotation Yrotation
							JOINT RightForeArm
							{
								OFFSET -29.11090 0.00000 0.00000
								CHANNELS 3 Zrotation Xrotation Yrotation
								JOINT RightHand
								{
									OFFSET -24.65040 0.00000 0.00000
									CHANNELS 3 Zrotation Xrotation Yrotation
									JOINT RightHandThumb1
									{
										OFFSET -5.35114 -0.85590 3.97906
										CHANNELS 3 Zrotation Xrotation Yrotation
										JOINT RightHandThumb2
										{
											OFFSET -4.52789 0.00000 0.00000
											CHANNELS 3 Zrotation Xrotation Yrotation
											JOINT RightHandThumb3
											{
												OFFSET -2.46976 0.00000 0.00000
												CHANNELS 3 Zrotation Xrotation Yrotation
												End site
												{
													OFFSET 0.00000 0.00000 0.00000
												}
											}
										}
									}
									JOINT RightHandIndex1
									{
										OFFSET -14.26970 0.00000 2.88139
										CHANNELS 3 Zrotation Xrotation Yrotation
										JOINT RightHandIndex2
										{
											OFFSET -5.48836 0.00000 0.00000
											CHANNELS 3 Zrotation Xrotation Yrotation
											JOINT RightHandIndex3
											{
												OFFSET -3.01859 0.00000 0.00000
												CHANNELS 3 Zrotation Xrotation Yrotation
												End site
												{
													OFFSET 0.00000 0.00000 0.00000
												}
											}
										}
									}
									JOINT RightHandMiddle1
									{
										OFFSET -14.26970 0.00000 -0.09147
										CHANNELS 3 Zrotation Xrotation Yrotation
										JOINT RightHandMiddle2
										{
											OFFSET -6.17441 0.00000 0.00000
											CHANNELS 3 Zrotation Xrotation Yrotation
											JOINT RightHandMiddle3
											{
												OFFSET -3.56743 0.00000 0.00000
												CHANNELS 3 Zrotation Xrotation Yrotation
												End site
												{
													OFFSET 0.00000 0.00000 0.00000
												}
											}
										}
									}
									JOINT RightHandRing1
									{
										OFFSET -12.69180 0.00000 -3.06433
										CHANNELS 3 Zrotation Xrotation Yrotation
										JOINT RightHandRing2
										{
											OFFSET -5.62556 0.00000 0.00000
											CHANNELS 3 Zrotation Xrotation Yrotation
											JOINT RightHandRing3
											{
												OFFSET -3.56744 0.00000 0.00000
												CHANNELS 3 Zrotation Xrotation Yrotation
												End site
												{
													OFFSET 0.00000 0.00000 0.00000
												}
											}
										}
									}
									JOINT RightHandPinky1
									{
										OFFSET -11.11390 0.00000 -6.03719
										CHANNELS 3 Zrotation Xrotation Yrotation
										JOINT RightHandPinky2
										{
											OFFSET -4.52789 0.00000 0.00000
											CHANNELS 3 Zrotation Xrotation Yrotation
											JOINT RightHandPinky3
											{
												OFFSET -2.46976 0.00000 0.00000
												CHANNELS 3 Zrotation Xrotation Yrotation
												End site
												{
													OFFSET 0.00000 0.00000 0.00000
												}
											}
										}
									}
								}
							}
						}
					}
					JOINT LeftShoulder
					{
						OFFSET 0.01000 7.91373 5.19711
						CHANNELS 3 Zrotation Xrotation Yrotation
						JOINT LeftArm
						{
							OFFSET 18.41580 0.00000 0.00000
							CHANNELS 3 Zrotation Xrotation Yrotation
							JOINT LeftForeArm
							{
								OFFSET 29.11090 0.00000 0.00000
								CHANNELS 3 Zrotation Xrotation Yrotation
								JOINT LeftHand
								{
									OFFSET 24.65040 0.00000 0.00000
									CHANNELS 3 Zrotation Xrotation Yrotation
									JOINT LeftHandThumb1
									{
										OFFSET 5.35114 -0.85590 3.97906
										CHANNELS 3 Zrotation Xrotation Yrotation
										JOINT LeftHandThumb2
										{
											OFFSET 4.52789 0.00000 0.00000
											CHANNELS 3 Zrotation Xrotation Yrotation
											JOINT LeftHandThumb3
											{
												OFFSET 2.46977 0.00000 0.00000
												CHANNELS 3 Zrotation Xrotation Yrotation
												End site
												{
													OFFSET 0.00000 0.00000 0.00000
												}
											}
										}
									}
									JOINT LeftHandIndex1
									{
										OFFSET 14.26970 0.00000 2.88139
										CHANNELS 3 Zrotation Xrotation Yrotation
										JOINT LeftHandIndex2
										{
											OFFSET 5.48836 0.00000 0.00000
											CHANNELS 3 Zrotation Xrotation Yrotation
											JOINT LeftHandIndex3
											{
												OFFSET 3.01859 0.00000 0.00000
												CHANNELS 3 Zrotation Xrotation Yrotation
												End site
												{
													OFFSET 0.00000 0.00000 0.00000
												}
											}
										}
									}
									JOINT LeftHandMiddle1
									{
										OFFSET 14.26970 0.00000 -0.09147
										CHANNELS 3 Zrotation Xrotation Yrotation
										JOINT LeftHandMiddle2
										{
											OFFSET 6.17440 0.00000 0.00000
											CHANNELS 3 Zrotation Xrotation Yrotation
											JOINT LeftHandMiddle3
											{
												OFFSET 3.56744 0.00000 0.00000
												CHANNELS 3 Zrotation Xrotation Yrotation
												End site
												{
													OFFSET 0.00000 0.00000 0.00000
												}
											}
										}
									}
									JOINT LeftHandRing1
									{
										OFFSET 12.69180 0.00000 -3.06433
										CHANNELS 3 Zrotation Xrotation Yrotation
										JOINT LeftHandRing2
										{
											OFFSET 5.62556 0.00000 0.00000
											CHANNELS 3 Zrotation Xrotation Yrotation
											JOINT LeftHandRing3
											{
												OFFSET 3.56744 0.00000 0.00000
												CHANNELS 3 Zrotation Xrotation Yrotation
												End site
												{
													OFFSET 0.00000 0.00000 0.00000
												}
											}
										}
									}
									JOINT LeftHandPinky1
									{
										OFFSET 11.11390 0.00000 -6.03719
										CHANNELS 3 Zrotation Xrotation Yrotation
										JOINT LeftHandPinky2
										{
											OFFSET 4.52789 0.00000 0.00000
											CHANNELS 3 Zrotation Xrotation Yrotation
											JOINT LeftHandPinky3
											{
												OFFSET 2.46976 0.00000 0.00000
												CHANNELS 3 Zrotation Xrotation Yrotation
												End site
												{
													OFFSET 0.00000 0.00000 0.00000
												}
											}
										}
									}
								}
							}
						}
					}
					JOINT pCube4
					{
						OFFSET 0.00000 10.91090 1.10792
						CHANNELS 3 Zrotation Xrotation Yrotation
						End site
						{
							OFFSET 0.00000 0.00000 0.00000
						}
					}
				}
			}
		}
	}
	JOINT RightUpLeg
	{
		OFFSET -9.98441 0.00000 0.00000
		CHANNELS 3 Zrotation Xrotation Yrotation
		JOINT RightLeg
		{
			OFFSET 0.00000 -42.11790 0.00000
			CHANNELS 3 Zrotation Xrotation Yrotation
			JOINT RightFoot
			{
				OFFSET 0.00000 -45.00020 -0.00001
				CHANNELS 3 Zrotation Xrotation Yrotation
				JOINT RightForeFoot
				{
					OFFSET 0.00000 -3.74820 0.00000
					CHANNELS 3 Zrotation Xrotation Yrotation
					JOINT RightToeBase
					{
						OFFSET 0.00000 0.06325 14.43120
						CHANNELS 3 Zrotation Xrotation Yrotation
						End site
						{
							OFFSET 0.00000 0.00000 0.00000
						}
					}
				}
			}
		}
	}
	JOINT LeftUpLeg
	{
		OFFSET 9.98441 0.00000 0.00000
		CHANNELS 3 Zrotation Xrotation Yrotation
		JOINT LeftLeg
		{
			OFFSET 0.00000 -42.11800 0.00000
			CHANNELS 3 Zrotation Xrotation Yrotation
			JOINT LeftFoot
			{
				OFFSET 0.00000 -45.00070 0.00000
				CHANNELS 3 Zrotation Xrotation Yrotation
				JOINT LeftForeFoot
				{
					OFFSET 0.00000 -3.74824 0.00000
					CHANNELS 3 Zrotation Xrotation Yrotation
					JOINT LeftToeBase
					{
						OFFSET 0.00000 0.06325 14.43110
						CHANNELS 3 Zrotation Xrotation Yrotation
						End site
						{
							OFFSET 0.00000 0.00000 0.00000
						}
					}
				}
			}
		}
	}
}
MOTION
Frames: 4
Frame Time: 0.050000
0.032470893853336805 -0.035888976011159625 -0.036187780893329004 0.01389178996014247 -0.026963591836743274 0.0066259868656349105 1.358982215421792 4.084427069291637 -1.5775676504507343 -0.5484742383046112 4.117049512087942 0.3635698769822703 -0.5359212205657312 -1.3770253208828072 0.6745489031040354 -1.342125677261508 -0.6404180414664454 -0.2736575124926409 -1.1942387117046462 12.841644154136844 1.3134424321211406 0.35474262635317755 -2.1002041188236538 3.246028632400414 0.20748069997346333 -19.098735049102732 0.17460342187180322 -4.8898499391118255 2.042721944625561 -16.31305469590339 78.82419742037875 9.429737042969911 -1.6928346981211784 0.5512178529339912 3.2041954103444827 52.8050433184727 25.466225648319224 -0.3145283044003897 -2.7112516834143996 4.577334537922147 -0.12731807541336965 -1.5827629367066924 0.0013926093154009334 0.030102857047183653 -56.28032850468653 0.00777498789874518 0.0031219480097519937 -56.26596711658914 -38.798774702177106 -0.03956930396488727 0.026679780820467378 -0.026057001051720013 -0.00866541874662525 -0.020128886649194065 -0.04810174017918786 0.01356899795089854 -0.00889961798401194 -36.69421757946869 0.0055545758818962955 0.04070177758470804 -0.022741479921901033 -0.03321778157467906 -0.019525513944597502 0.021198483262888347 -0.003181333622623167 -0.02393294349472055 -19.804319504379006 0.008447546819584461 -0.01658797591107507 -0.011055591969830133 0.009779520258850484 0.004299591174713895 -0.0231897903485638 -0.036322502756931586 0.01436166447972168 24.057793596618378 0.011762403242535443 -0.01154313379622089 28.906113427072203 0.021274108860565476 0.0068583377375785095 28.848351816550966 0.02916200664885611 -0.01161584967901685 8.208645244308824 2.0527491053917992 15.024538153911138 -78.49069070542406 16.318092940705405 -12.050014145364337 -1.2465126249825977 12.071551607348043 -48.18797762664359 -27.27074337661388 8.348574766975457 -3.921462786008836 -0.4739389295630118 0.07540948414680083 -8.147370603685543 -0.020203556562956533 0.037496971256372975 44.5586793511989 -0.04051610913536142 -0.04049588764838308 44.60840162420588 12.41081657595253 0.04286117533118596 0.009803319946590143 -0.021599834876620566 -0.003286924202657826 -0.014785537503577716 0.029561653120706754 0.0234704762552556 0.009133055319823688 11.060634850983826 0.04951105582068377 0.003869444049732619 -0.003892442942381226 0.031231747931128907 -0.0044672431254544585 0.014576569249697184 0.020438069723944442 -0.036975590734715784 4.80704130490225 -0.00810134338475627 -0.013313841969446242 -0.014328873915823877 -0.04169859930006435 0.010212322742991324 0.020306379748068308 -0.004443967175597021 -0.022729300078567202 -5.639863666630845 -0.010324713557559392 -0.012242850498696873 -6.76820414822589 0.0368698738344057 -0.0335776029433372 -6.703733665476919 0.019733140936746142 -0.015518660352342681 -0.0461819057690567 -0.017721794008451093 0.03838025942490607 8.049486879007624 3.521484804231261 -19.251032866823625 0.019242653733879653 10.440598926292868 0.04686004609273177 -5.611820545471374 -15.677794040389493 3.2225374739744397 -0.02494124892523408 -0.03422031392083277 0.014955635268304387 0.04043018877275204 4.664774238400196 0.03127327032312549 12.427662221836322 -8.251770549322593 6.8519559277352515 0.03560121314018847 46.35630048458285 0.041969191514248085 -4.3681263315122445 -14.71663638727774 -3.8638003976047166 -0.027401594021709937 0.012633254532122924 -0.016317610153652216 -0.01683759553915522 -10.701112467550551 0.0430740317095368 
-0.017887010664266154 0.03916616393953756 0.006184379035570901 0.03206011593850994 -0.015785391017439206 0.041223940990361314 0.9367185736811673 4.012624167020528 -1.4806885147672921 -0.5015267524516441 4.137930846743569 0.2749365772793855 -0.5492285983972998 -1.3810642006012506 0.775880859904861 -1.410937629022095 -0.6943236634089873 -0.2843319588582257 -1.1285302874911811 12.884405110058863 1.3018524485775604 0.3980759692235691 -2.173324785439689 2.9934879693569214 0.30689785773719036 -19.297209722986246 0.19313704423331013 -4.638291248703886 2.0202285315777657 -16.263863917639494 78.52412829855811 9.550189568038256 -1.6297450153874675 -0.6195055128396243 3.155668650827822 54.17805171845268 26.35882658371938 -0.35775216362988127 -2.817750805215384 4.548741236273551 -0.14468422838071318 -1.6388520376335716 -0.008258420722173353 0.02645224739638032 -56.20557137080878 -0.012090643001290967 -0.013245187322379594 -56.209622517141206 -38.72684545022953 0.03794866910913133 -0.046349352797683395 -0.013895296454934057 0.03116568632443151 -0.027398154476141568 0.023368731001550052 0.0009689751215402127 -0.04982863694803677 -36.67651042950813 -0.02524477684840297 0.002193824827358163 -0.04441038700278429 -0.018084084624845204 -0.032541235722971115 0.031278691256289376 0.048575703324753895 -0.020925024147337757 -19.740896289789873 0.028770007996983645 0.004793860703745977 -0.01231735495398343 -0.007847450333308395 -0.006594815098800863 -0.03179362491866865 -0.015943188056830846 0.019108698362306192 24.070315473363973 -0.03829740181605936 0.0296863880609579 28.87419153323348 0.034182131131760204 0.04239328675653233 28.820579265228062 -0.03649178130747258 0.046282085943286845 7.872263024149618 2.00710051805379 15.089339879183287 -78.76765565168526 15.860951339636758 -11.330489542115448 -0.39727935845706314 12.139461063306076 -47.170445784132696 -28.226901872892544 9.23480594868228 -4.538849394868999 -0.43177341648171774 0.06226959028329972 -8.112106015286443 -0.0229610967501458 0.031397428327113515 44.53685088138057 -0.01746906513748815 0.0020503307389645184 44.59160781525838 12.439069991566347 0.020387817949555756 0.04181487219898261 -0.016980881700898374 0.031488627880113515 0.02887265762527082 -0.039498213707329616 -0.011840623511490652 -0.02166353268203567 11.091193033016097 0.04163369866058911 0.04726098306417152 -0.03218328777421103 -0.03438991130539722 0.01452202412005619 0.003316529530039448 0.003534664552519862 0.00778119024046352 4.775061457361124 0.01703410541714448 1.6469998295190936e-05 -0.02648456173526463 -0.010177576296980644 -0.016305199171524804 0.026647260050667716 -0.0072716483941913474 -0.03532944260726632 -5.603522690069779 0.04619109705856963 0.02446365439733397 -6.693868994584124 -0.004471697532148523 -0.0076812358548325466 -6.691560603329423 0.02676192475824666 -0.015938661877329435 -0.020330608606473295 -0.027915685877526682 0.008130261885346563 8.072759136697771 3.5103176907124114 -19.24163683303122 -0.04287431519877789 10.368556454240943 -0.024094606988493607 -5.614161052437346 -15.686103062094912 3.2239134023091207 -0.02673676507762474 0.031581631382345335 0.024228025523763054 0.01298887543515454 4.717386225736518 0.010057582022376764 12.469696160134388 -8.231541627756751 6.897289024381364 0.007477547454378885 46.4214818918205 0.000367972122784131 -4.2969581595526 -14.765796028117666 -3.853960030754182 0.046683098110224044 -0.028274593660963517 -0.02592170774244295 -0.03421581941741648 -10.724605822842571 0.013217881888470255 
0.025770519006750092 -0.04255931319799516 -0.030884504730134845 0.04049532909086728 0.025424181596184176 0.03303812467129911 0.5399836756518662 4.071407479202262 -1.4387911451469784 -0.52248887260566 4.090755265856524 0.3144208947639112 -0.561238672212954 -1.4516854879882222 0.7867230665205439 -1.467571524094316 -0.7058840614313224 -0.31130880417388995 -1.1496584601676787 12.853910859024586 1.2316930631654963 0.3688754558295896 -2.3245967661722338 2.8425851995998412 0.3681687455726105 -19.450316349690194 0.16296174332929556 -4.42131909407901 1.891819624074428 -16.23948259522615 78.35837903124924 9.798947544354089 -1.6998889647079418 -1.4934990057748294 2.949878616691746 55.67004453485902 27.124677421614198 -0.28030693781663385 -3.0760606792449696 4.537824417128596 -0.16841064346855722 -1.6291317625361368 -0.019076698318620668 -0.025390770839603297 -56.23827756247971 -0.010573424682932911 -0.02324118161673526 -56.19337035050898 -38.776388258689316 0.03460088652735385 0.025069199864675932 0.026379186947602072 0.03110624925896556 0.049718319255394605 0.049939526839145196 -0.021755160683969824 -0.006060549895303163 -36.71463670522305 0.03607675248225973 -0.02299364307954247 0.023924055216091117 0.029386056628985156 0.028827790753120617 -0.04867749270662128 -0.0003937810174283661 -0.026528534667802642 -19.76492632321113 -0.023057910028826203 0.046259586845274966 -0.005819446038315258 0.00935438750862624 -0.0352542953450408 0.039763947448504824 0.010976623233596345 0.048082646428028626 24.068312495991286 -0.04879353910059908 -0.047306070325931475 28.84122111937253 0.04838433739480218 0.0018721978370431578 28.89728396064108 0.027906658342197018 -0.04750903733360659 7.619147071340916 1.9263573438736776 15.064337421132153 -78.89431877984474 16.001236509878908 -10.63802701094607 -0.14585618607433792 11.296767049053685 -46.52768885001404 -28.894125634781886 9.713185343301472 -4.909914267303524 -0.4813741777160146 0.03583388309011583 -8.11527878924144 0.007834995533759118 -0.046737138061846956 44.540235837581974 0.008405846630450032 0.004837293868145241 44.55549951272746 12.47267380792491 -0.00360468341647503 0.037272017199706915 -0.030983256314873517 -0.03627644752319088 -0.012528328446251144 -0.028431448107033644 0.03586753974860512 -0.00527101914475443 11.088382029006562 0.0029721971097887855 -0.034572521745855615 -0.006184341037955457 0.03402232455165544 0.034423771628024326 0.006012628475032991 -0.031958238317921814 0.04375451423549329 4.769367938184975 -0.04160141510577439 -0.03942823726790768 -0.029619685696935447 -0.003684287253023514 -0.04665682858758938 0.0098530550859868 -0.04598731167804887 0.01153336687463264 -5.617055053913402 0.043270136127240365 0.02880130758554847 -6.678198716187126 0.013199417809882484 -0.023187487971760467 -6.709170626430097 -0.0012056015796515474 0.012972042233361066 0.03846146297944025 0.03978954456648898 0.007292078924195655 8.021545848156885 3.5423828962954795 -19.217743720657733 -0.012030731136783835 10.41281802837367 0.05818617182728958 -5.652193508543138 -15.640160607773447 3.151866652923555 0.04710655056820852 -0.018446211722332677 -0.015598868818607248 0.0024863915293643914 4.718974543720034 -0.036020664277702 12.441861168523907 -8.196622053557823 6.9223066981436325 0.010560537329395698 46.38461106929559 0.04462837823189702 -4.333310232501054 -14.749546225216807 -3.862719963070315 0.048694004650885726 -0.017898552835643164 -0.028594986746404857 0.0034902866831150706 -10.6986922281166 0.0006135981699836471 
-0.007060922753313773 0.03884763408494971 0.04343252195160027 0.014495543571384257 0.01758147239402708 -0.01070686266688284 -0.013415407786628631 4.062024751155586 -1.414473886153946 -0.5106062989991422 4.128779204702376 0.3095411071106381 -0.6147558589554639 -1.4462746059213978 0.7541385308075967 -1.5126280844303848 -0.7910616263860859 -0.3510345689937533 -1.1263843978942503 12.663377058865686 1.2508618653984822 0.3576645202200033 -2.407883528616961 2.839304285800047 0.3383011838566911 -19.59012801209356 0.16170817503883214 -3.987230299991334 1.7833053152193783 -16.095422460982572 78.06050632021916 9.670161009244437 -1.9071907906854166 -2.2344565886276113 3.6737421776080437 55.886264082625786 27.901371507536993 -0.33410024888198964 -2.928011199245185 4.523255149697718 -0.10478054833629236 -1.5496497661094317 -0.01987924841016813 -0.002187506214855788 -56.28123998877239 -0.031381528853963926 0.011787051864796408 -56.194555398558094 -38.78553247281544 0.010854785984576381 -0.009710640869225105 -0.030561489739147095 0.012450620746764767 0.014838386400696792 0.01787969432084797 -0.022424238472293755 -0.03027631958054818 -36.66480119972815 0.011073284527083588 -0.007079606990827424 0.0027182599727180474 -0.02845966693408425 0.012977336856310582 0.03274134362646729 0.020413055539631745 -0.025256725015566705 -19.722244115819812 0.0038559475614282457 0.025783410409433886 0.02180182355711114 0.038571688856536106 -0.04824907131481069 0.016103732092716812 -0.006058408693052259 0.03977398128442197 24.04164502540473 0.0031041220176642728 -0.02081584422489865 28.84265876799109 -0.032549281229577044 -0.013145325176586769 28.87537855808901 0.04851023543091201 0.003941815954417849 7.1874324131848875 1.8505209436948844 15.024669667414885 -79.14010421602835 15.793342359653197 -9.90420916222802 0.9485714358262332 11.444469966267617 -45.14971192698054 -29.530574918434805 10.925251486116574 -5.862373277654833 -0.5236751005296227 0.055914111930686364 -8.110553268724559 -0.013546712775971954 -0.0397690628114053 44.57152745939808 -0.03044594610474256 -0.03732947405882882 44.57305156626962 12.48671302825586 -0.008861375665257524 0.047110904344648236 -0.01297897573018686 -0.022932514486344726 -0.0005593129753838402 -0.027981464073610754 -0.020240100243856696 -0.030446225388004643 11.11235331532329 0.029064101068377923 -0.04815267945919789 -0.019192703579710445 -0.04564186462051155 -0.025567135679438528 0.017103740604530605 0.033477731107400405 -0.029247345577320005 4.794888824833323 0.03526909128724646 -0.03399801894400348 -0.003407796894134885 0.0026866058459014373 -0.008953632010067809 0.03935340916333956 0.013919158162821943 -0.012371123457127929 -5.583031419680151 0.04239724601785124 -0.032254868387590896 -6.733092711309201 0.019438832390177834 -0.004611339801514351 -6.700435074362251 -0.03476175123833623 0.030713287644801156 0.01277365659239633 0.027619314485343667 0.0364293642057949 8.042239763669006 3.4897562599558514 -19.255698824002426 0.01565421447060628 10.370834522429988 -0.03515970433252372 -5.617601223782311 -15.658440587138813 3.2216630640362145 0.03391989665704412 -0.016101435420780547 -0.030467395865519224 -0.03675892095615073 4.740507905032659 0.02757179768034042 12.478284972924332 -8.27531929222325 6.8710147022600925 -0.03711596109913805 46.41459786648308 -0.0151685004575348 -4.337753969300669 -14.739934710991767 -3.849465363394827 0.010278722813451251 -0.04288987431974023 -0.011836335276484027 -0.0372255859145015 -10.76735169005137 -0.049088166020315765 
